<svg viewBox="0 0 200 200" xmlns="http://www.w3.org/2000/svg">
<path d="M78.5642 28.3667C77.9881 30.0376 76.5284 31.4589 75.3183 31.555C74.1083 31.651 73.5898 30.3642 74.1852 28.6932C74.7806 27.0222 76.2211 25.601 77.4311 25.5049C78.6411 25.4089 79.1596 26.6957 78.5642 28.3667Z" fill="#1A2EB2"/>
<path d="M172.349 55.1213C170.775 59.6349 166.818 63.4954 163.534 63.7258C160.249 63.9563 158.867 60.4991 160.441 55.9856C162.016 51.4721 165.973 47.6116 169.257 47.3811C172.542 47.1506 173.924 50.6078 172.349 55.1213Z" fill="#C9981D"/>
<path d="M32.4546 51.252C29.4392 52.9998 27 57.2252 27 60.7016C27 64.178 29.4584 65.58 32.493 63.8323C35.5085 62.0845 37.9477 57.859 37.9477 54.3827C37.9477 50.9063 35.4893 49.5042 32.4546 51.252Z" fill="#161922"/>
<rect x="48" y="83.0823" width="79.3111" height="100.04" rx="10" transform="rotate(-23.9625 48 83.0823)" fill="#161922"/>
<rect x="48.9013" y="79.7111" width="79.3111" height="100.04" rx="10" transform="rotate(-23.9625 48.9013 79.7111)" fill="#292E3D"/>
<rect x="58.4182" y="83.3715" width="64.8909" height="85.6199" rx="10" transform="rotate(-23.9625 58.4182 83.3715)" fill="#272C3A"/>
<path d="M97.9706 158.729C99.2573 158.757 100.57 158.509 101.824 157.952L144.651 138.918C149.199 136.896 151.248 131.57 149.226 127.022L121.773 65.2528C120.252 61.8295 116.859 59.8224 113.334 59.9005C116.715 59.9753 119.912 61.9583 121.377 65.2528L148.829 127.022C150.851 131.57 148.802 136.896 144.254 138.918L101.428 157.952C100.302 158.452 99.1293 158.703 97.9706 158.729Z" fill="#040506"/>
<path fill-rule="evenodd" clip-rule="evenodd" d="M82.6079 90.0651C82.4928 90.3824 82.5367 90.7492 82.7278 91.0436L84.0149 93.0182C84.8866 94.3556 83.8362 96.107 82.2508 95.9595L80.1761 95.7665C79.8496 95.7361 79.5378 95.8746 79.3413 96.1375L78.0945 97.8064C77.1415 99.0819 75.1377 98.6879 74.7292 97.1447L74.1264 94.8677C74.0364 94.5275 73.7927 94.2491 73.4801 94.1219L71.2359 93.2084C69.8042 92.6257 69.6191 90.6688 70.9165 89.8337L72.8108 88.6145C73.0795 88.4413 73.2504 88.1323 73.2557 87.7833L73.2888 85.6416C73.3139 84.0182 75.2213 83.1707 76.4429 84.2402L78.0544 85.6511C78.3167 85.8808 78.66 85.9611 78.9696 85.8773L81.1429 85.2885C82.6322 84.8851 83.9606 86.3339 83.4338 87.787L82.6079 90.0651Z" fill="#161922"/>
<path fill-rule="evenodd" clip-rule="evenodd" d="M83.1728 89.0479C83.0577 89.3652 83.1016 89.732 83.2927 90.0264L84.5798 92.001C85.4515 93.3384 84.4011 95.0898 82.8157 94.9423L80.7409 94.7493C80.4145 94.7189 80.1026 94.8574 79.9062 95.1203L78.6594 96.7892C77.7064 98.0647 75.7026 97.6707 75.2941 96.1275L74.6913 93.8505C74.6013 93.5103 74.3576 93.2319 74.045 93.1047L71.8008 92.1912C70.3691 91.6085 70.1839 89.6516 71.4814 88.8165L73.3757 87.5973C73.6444 87.424 73.8153 87.1151 73.8206 86.7661L73.8537 84.6244C73.8788 83.001 75.7862 82.1535 77.0078 83.223L78.6193 84.6339C78.8816 84.8636 79.2248 84.9439 79.5345 84.8601L81.7078 84.2713C83.1971 83.8679 84.5255 85.3167 83.9987 86.7698L83.1728 89.0479Z" fill="#C9981D"/>
<path fill-rule="evenodd" clip-rule="evenodd" d="M98.2558 83.1102C98.1407 83.4276 98.1846 83.7944 98.3757 84.0888L99.6628 86.0634C100.535 87.4008 99.4841 89.1521 97.8987 89.0047L95.8239 88.8117C95.4975 88.7812 95.1856 88.9198 94.9892 89.1827L93.7424 90.8515C92.7894 92.127 90.7856 91.7331 90.3771 90.1899L89.7743 87.9128C89.6843 87.5727 89.4406 87.2942 89.128 87.167L86.8838 86.2536C85.4521 85.6709 85.2669 83.714 86.5644 82.8789L88.4587 81.6597C88.7274 81.4864 88.8983 81.1775 88.9036 80.8284L88.9367 78.6868C88.9618 77.0634 90.8692 76.2159 92.0908 77.2854L93.7023 78.6963C93.9646 78.9259 94.3078 79.0063 94.6175 78.9224L96.7908 78.3337C98.2801 77.9303 99.6085 79.379 99.0817 80.8322L98.2558 83.1102Z" fill="#161922"/>
<path fill-rule="evenodd" clip-rule="evenodd" d="M98.8208 82.093C98.7057 82.4104 98.7496 82.7772 98.9407 83.0716L100.228 85.0462C101.1 86.3835 100.049 88.1349 98.4637 87.9874L96.3889 87.7944C96.0625 87.764 95.7506 87.9025 95.5542 88.1655L94.3074 89.8343C93.3544 91.1098 91.3506 90.7158 90.9421 89.1727L90.3393 86.8956C90.2493 86.5555 90.0056 86.277 89.693 86.1498L87.4488 85.2364C86.0171 84.6536 85.8319 82.6967 87.1294 81.8616L89.0237 80.6424C89.2924 80.4692 89.4633 80.1602 89.4686 79.8112L89.5017 77.6695C89.5268 76.0461 91.4342 75.1986 92.6558 76.2681L94.2673 77.679C94.5296 77.9087 94.8728 77.9891 95.1825 77.9052L97.3558 77.3165C98.8451 76.913 100.174 78.3618 99.6467 79.8149L98.8208 82.093Z" fill="#C9981D"/>
<path fill-rule="evenodd" clip-rule="evenodd" d="M113.904 76.1555C113.789 76.4729 113.833 76.8397 114.024 77.1341L115.311 79.1087C116.183 80.4461 115.132 82.1974 113.547 82.05L111.472 81.857C111.146 81.8265 110.834 81.9651 110.638 82.228L109.391 83.8968C108.438 85.1723 106.434 84.7784 106.025 83.2352L105.423 80.9581C105.333 80.618 105.089 80.3395 104.776 80.2123L102.532 79.2989C101.1 78.7162 100.915 76.7593 102.213 75.9242L104.107 74.705C104.376 74.5317 104.547 74.2228 104.552 73.8737L104.585 71.7321C104.61 70.1087 106.518 69.2612 107.739 70.3307L109.351 71.7416C109.613 71.9712 109.956 72.0516 110.266 71.9677L112.439 71.379C113.928 70.9756 115.257 72.4243 114.73 73.8775L113.904 76.1555Z" fill="#161922"/>
<path fill-rule="evenodd" clip-rule="evenodd" d="M114.469 75.1382C114.354 75.4555 114.398 75.8223 114.589 76.1167L115.876 78.0913C116.748 79.4287 115.697 81.1801 114.112 81.0326L112.037 80.8396C111.711 80.8092 111.399 80.9477 111.202 81.2106L109.956 82.8795C109.003 84.155 106.999 83.761 106.59 82.2178L105.988 79.9408C105.898 79.6006 105.654 79.3222 105.341 79.195L103.097 78.2815C101.665 77.6988 101.48 75.7419 102.778 74.9068L104.672 73.6876C104.941 73.5143 105.111 73.2054 105.117 72.8564L105.15 70.7147C105.175 69.0913 107.082 68.2438 108.304 69.3133L109.915 70.7242C110.178 70.9539 110.521 71.0342 110.831 70.9504L113.004 70.3616C114.493 69.9582 115.822 71.407 115.295 72.8601L114.469 75.1382Z" fill="#C9981D"/>
<rect x="77.6353" y="113.295" width="54.977" height="4.50631" rx="2.25316" transform="rotate(-23.9625 77.6353 113.295)" fill="#040506"/>
<rect x="83.1257" y="125.649" width="54.977" height="4.50631" rx="2.25316" transform="rotate(-23.9625 83.1257 125.649)" fill="#040506"/>
<rect x="91.1786" y="143.768" width="54.977" height="4.50631" rx="2.25316" transform="rotate(-23.9625 91.1786 143.768)" fill="#040506"/>
<rect x="86.4201" y="133.061" width="21.6303" height="4.50631" rx="2.25316" transform="rotate(-23.9625 86.4201 133.061)" fill="#040506"/>
</svg>
